<svg xmlns="http://www.w3.org/2000/svg" viewBox="0 0 512 512" role="img" aria-label="Reese">
  <defs>
    <linearGradient id="bg" x1="82" x2="430" y1="44" y2="468" gradientUnits="userSpaceOnUse">
      <stop offset="0" stop-color="#1a1d2a"/>
      <stop offset="0.58" stop-color="#0f111b"/>
      <stop offset="1" stop-color="#171925"/>
    </linearGradient>
    <linearGradient id="accent" x1="78" x2="434" y1="395" y2="395" gradientUnits="userSpaceOnUse">
      <stop offset="0" stop-color="#94e2d5" stop-opacity="0"/>
      <stop offset="0.22" stop-color="#94e2d5" stop-opacity="0.58"/>
      <stop offset="0.5" stop-color="#94e2d5"/>
      <stop offset="0.78" stop-color="#94e2d5" stop-opacity="0.58"/>
      <stop offset="1" stop-color="#94e2d5" stop-opacity="0"/>
    </linearGradient>
    <filter id="markShadow" x="-20%" y="-20%" width="140%" height="140%" color-interpolation-filters="sRGB">
      <feDropShadow dx="0" dy="14" stdDeviation="16" flood-color="#000000" flood-opacity="0.14"/>
    </filter>
    <filter id="lineGlow" x="-20%" y="-200%" width="140%" height="500%" color-interpolation-filters="sRGB">
      <feGaussianBlur stdDeviation="10"/>
    </filter>
  </defs>
  <rect width="512" height="512" rx="118" fill="url(#bg)"/>
  <rect x="32" y="32" width="448" height="448" rx="98" fill="none" stroke="#34384d" stroke-width="10" opacity="0.72"/>
  <g transform="translate(15 24) scale(0.94)">
    <path d="M155 374V154h108c31 0 56 8 74 23 18 15 27 36 27 62 0 18-5 34-14 47-9 13-22 23-38 30l82 58h-82l-66-53h-37v53h-54Zm54-99h52c16 0 28-3 37-10 8-7 12-16 12-28s-4-21-12-28c-9-7-21-10-37-10h-52v76Z" fill="#e8ebf5" filter="url(#markShadow)"/>
  </g>
  <rect x="78" y="386" width="356" height="18" rx="9" fill="url(#accent)"/>
  <rect x="104" y="388" width="304" height="30" rx="15" fill="#0f766e" opacity="0.2" filter="url(#lineGlow)"/>
</svg>
